<svg width="844" height="501" viewBox="0 0 844 501" fill="none" xmlns="http://www.w3.org/2000/svg" style="">
<path d="M13 0V199" stroke="#30305B" stroke-width="25" class="bKLZXlHl_0"></path>
<path d="M25 13.0892C50.3436 13.0891 99.0429 9.10158 99.0429 54.461C99.0429 84.8667 84.135 100.818 25 100.818C53.3252 100.818 106 90.3499 106 143.186C106 194.527 52.3313 186.552 25 186.552" stroke="#30305B" stroke-width="25" class="bKLZXlHl_1"></path>
<path d="M171.5 122.5H283.5C283.5 102.5 268 59.5 220.5 59.5C200.5 59.6709 160 70.5 160 122.5C160 143.5 175.5 185.5 220.5 185.5C234 185.5 260 182 276 153.5" stroke="#30305B" stroke-width="25" class="bKLZXlHl_2"></path>
<path d="M327 86.9999C327 83 330 80 334.5 80C337.5 80 342.5 81.9998 342.5 86.9999C342.5 92 338.333 94.3334 335 94.5001C331 94.5001 327 92.5 327 86.9999Z" stroke="#30305B" stroke-width="15" class="bKLZXlHl_3"></path>
<path d="M326.5 186C326.5 179.5 331.5 178.5 335 178.5C338.5 178.5 342.5 180.5 342.5 186C342.5 191.5 338.167 193.5 334.5 193.5C330.833 193.5 326.5 192 326.5 186Z" stroke="#30305B" stroke-width="15" class="bKLZXlHl_4"></path>
<path d="M13 300.5V486.5H86" stroke="#30305B" stroke-width="25" class="bKLZXlHl_5"></path>
<path d="M126.5 350.5V500" stroke="#30305B" stroke-width="25" class="bKLZXlHl_6"></path>
<path d="M119.182 314.519C119.182 308.5 122.5 307 126.5 307C130 307 134 308 134 314.519C134 321.039 130 322 127 322C123 322 119.182 320 119.182 314.519Z" stroke="#30305B" stroke-width="15" class="bKLZXlHl_7"></path>
<path d="M235.5 313C225.5 313 193 318.7 193 349.5V500" stroke="#30305B" stroke-width="25" class="bKLZXlHl_8"></path>
<path d="M165.5 362.5H236" stroke="#30305B" stroke-width="25" class="bKLZXlHl_9"></path>
<path d="M507.5 350.5V500" stroke="#30305B" stroke-width="25" class="bKLZXlHl_10"></path>
<path d="M499.5 315C499.5 310.5 503.5 307 507 307C510.833 307 514 308.5 514 315C514 319 510.833 322 507 322C503 322 499.5 318.5 499.5 315Z" stroke="#30305B" stroke-width="15" class="bKLZXlHl_11"></path>
<path d="M286 423H399.5C399.5 391.5 376 362 336 362C313 362 275.5 374.5 275.5 426C275.5 449 294 486.5 338 486.5C361 486.5 381.5 473 393 454" stroke="#30305B" stroke-width="25" class="bKLZXlHl_12"></path>
<path d="M560 354V500.5" stroke="#30305B" stroke-width="27" class="bKLZXlHl_13"></path>
<path d="M560.5 411C557 384.5 586.5 363.5 606.5 363.5C622 363.5 650 374 653 407V500" stroke="#30305B" stroke-width="27" class="bKLZXlHl_14"></path>
<path d="M716 423H830C830 397 814 361.5 764 361.5C743 361.5 705.5 379 705.5 426.5C705.5 453 728.5 485.571 767.5 486.5C779.996 486.798 807 481 823 454" stroke="#30305B" stroke-width="25" class="bKLZXlHl_15"></path>
<path d="M440.5 301.5V500" stroke="#30305B" stroke-width="25" class="bKLZXlHl_16"></path>
<style data-made-with="vivus-instant">.bKLZXlHl_0{stroke-dasharray:199 201;stroke-dashoffset:200;animation:bKLZXlHl_draw_0 3800ms ease 0ms infinite,bKLZXlHl_fade 3800ms linear 0ms infinite;}.bKLZXlHl_1{stroke-dasharray:412 414;stroke-dashoffset:413;animation:bKLZXlHl_draw_1 3800ms ease 0ms infinite,bKLZXlHl_fade 3800ms linear 0ms infinite;}.bKLZXlHl_2{stroke-dasharray:474 476;stroke-dashoffset:475;animation:bKLZXlHl_draw_2 3800ms ease 0ms infinite,bKLZXlHl_fade 3800ms linear 0ms infinite;}.bKLZXlHl_3{stroke-dasharray:48 50;stroke-dashoffset:49;animation:bKLZXlHl_draw_3 3800ms ease 0ms infinite,bKLZXlHl_fade 3800ms linear 0ms infinite;}.bKLZXlHl_4{stroke-dasharray:50 52;stroke-dashoffset:51;animation:bKLZXlHl_draw_4 3800ms ease 0ms infinite,bKLZXlHl_fade 3800ms linear 0ms infinite;}.bKLZXlHl_5{stroke-dasharray:259 261;stroke-dashoffset:260;animation:bKLZXlHl_draw_5 3800ms ease 0ms infinite,bKLZXlHl_fade 3800ms linear 0ms infinite;}.bKLZXlHl_6{stroke-dasharray:150 152;stroke-dashoffset:151;animation:bKLZXlHl_draw_6 3800ms ease 0ms infinite,bKLZXlHl_fade 3800ms linear 0ms infinite;}.bKLZXlHl_7{stroke-dasharray:49 51;stroke-dashoffset:50;animation:bKLZXlHl_draw_7 3800ms ease 0ms infinite,bKLZXlHl_fade 3800ms linear 0ms infinite;}.bKLZXlHl_8{stroke-dasharray:214 216;stroke-dashoffset:215;animation:bKLZXlHl_draw_8 3800ms ease 0ms infinite,bKLZXlHl_fade 3800ms linear 0ms infinite;}.bKLZXlHl_9{stroke-dasharray:71 73;stroke-dashoffset:72;animation:bKLZXlHl_draw_9 3800ms ease 0ms infinite,bKLZXlHl_fade 3800ms linear 0ms infinite;}.bKLZXlHl_10{stroke-dasharray:150 152;stroke-dashoffset:151;animation:bKLZXlHl_draw_10 3800ms ease 0ms infinite,bKLZXlHl_fade 3800ms linear 0ms infinite;}.bKLZXlHl_11{stroke-dasharray:47 49;stroke-dashoffset:48;animation:bKLZXlHl_draw_11 3800ms ease 0ms infinite,bKLZXlHl_fade 3800ms linear 0ms infinite;}.bKLZXlHl_12{stroke-dasharray:475 477;stroke-dashoffset:476;animation:bKLZXlHl_draw_12 3800ms ease 0ms infinite,bKLZXlHl_fade 3800ms linear 0ms infinite;}.bKLZXlHl_13{stroke-dasharray:147 149;stroke-dashoffset:148;animation:bKLZXlHl_draw_13 3800ms ease 0ms infinite,bKLZXlHl_fade 3800ms linear 0ms infinite;}.bKLZXlHl_14{stroke-dasharray:237 239;stroke-dashoffset:238;animation:bKLZXlHl_draw_14 3800ms ease 0ms infinite,bKLZXlHl_fade 3800ms linear 0ms infinite;}.bKLZXlHl_15{stroke-dasharray:476 478;stroke-dashoffset:477;animation:bKLZXlHl_draw_15 3800ms ease 0ms infinite,bKLZXlHl_fade 3800ms linear 0ms infinite;}.bKLZXlHl_16{stroke-dasharray:199 201;stroke-dashoffset:200;animation:bKLZXlHl_draw_16 3800ms ease 0ms infinite,bKLZXlHl_fade 3800ms linear 0ms infinite;}@keyframes bKLZXlHl_draw{100%{stroke-dashoffset:0;}}@keyframes bKLZXlHl_fade{0%{stroke-opacity:1;}89.47368421052632%{stroke-opacity:1;}100%{stroke-opacity:0;}}@keyframes bKLZXlHl_draw_0{10.526315789473683%{stroke-dashoffset: 200}45.6140350877193%{ stroke-dashoffset: 0;}100%{ stroke-dashoffset: 0;}}@keyframes bKLZXlHl_draw_1{11.62280701754386%{stroke-dashoffset: 413}46.71052631578948%{ stroke-dashoffset: 0;}100%{ stroke-dashoffset: 0;}}@keyframes bKLZXlHl_draw_2{12.719298245614036%{stroke-dashoffset: 475}47.80701754385965%{ stroke-dashoffset: 0;}100%{ stroke-dashoffset: 0;}}@keyframes bKLZXlHl_draw_3{13.815789473684212%{stroke-dashoffset: 49}48.90350877192983%{ stroke-dashoffset: 0;}100%{ stroke-dashoffset: 0;}}@keyframes bKLZXlHl_draw_4{14.912280701754385%{stroke-dashoffset: 51}50%{ stroke-dashoffset: 0;}100%{ stroke-dashoffset: 0;}}@keyframes bKLZXlHl_draw_5{16.008771929824558%{stroke-dashoffset: 260}51.09649122807017%{ stroke-dashoffset: 0;}100%{ stroke-dashoffset: 0;}}@keyframes bKLZXlHl_draw_6{17.105263157894736%{stroke-dashoffset: 151}52.192982456140356%{ stroke-dashoffset: 0;}100%{ stroke-dashoffset: 0;}}@keyframes bKLZXlHl_draw_7{18.20175438596491%{stroke-dashoffset: 50}53.289473684210535%{ stroke-dashoffset: 0;}100%{ stroke-dashoffset: 0;}}@keyframes bKLZXlHl_draw_8{19.298245614035086%{stroke-dashoffset: 215}54.385964912280706%{ stroke-dashoffset: 0;}100%{ stroke-dashoffset: 0;}}@keyframes bKLZXlHl_draw_9{20.394736842105264%{stroke-dashoffset: 72}55.48245614035088%{ stroke-dashoffset: 0;}100%{ stroke-dashoffset: 0;}}@keyframes bKLZXlHl_draw_10{21.49122807017544%{stroke-dashoffset: 151}56.57894736842105%{ stroke-dashoffset: 0;}100%{ stroke-dashoffset: 0;}}@keyframes bKLZXlHl_draw_11{22.587719298245613%{stroke-dashoffset: 48}57.67543859649123%{ stroke-dashoffset: 0;}100%{ stroke-dashoffset: 0;}}@keyframes bKLZXlHl_draw_12{23.684210526315788%{stroke-dashoffset: 476}58.77192982456141%{ stroke-dashoffset: 0;}100%{ stroke-dashoffset: 0;}}@keyframes bKLZXlHl_draw_13{24.780701754385966%{stroke-dashoffset: 148}59.86842105263158%{ stroke-dashoffset: 0;}100%{ stroke-dashoffset: 0;}}@keyframes bKLZXlHl_draw_14{25.877192982456137%{stroke-dashoffset: 238}60.96491228070177%{ stroke-dashoffset: 0;}100%{ stroke-dashoffset: 0;}}@keyframes bKLZXlHl_draw_15{26.973684210526315%{stroke-dashoffset: 477}62.06140350877193%{ stroke-dashoffset: 0;}100%{ stroke-dashoffset: 0;}}@keyframes bKLZXlHl_draw_16{28.07017543859649%{stroke-dashoffset: 200}63.1578947368421%{ stroke-dashoffset: 0;}100%{ stroke-dashoffset: 0;}}</style></svg>
