<svg width="72" height="126" viewBox="0 0 72 126" fill="none" xmlns="http://www.w3.org/2000/svg">
<path d="M9.29289 116.707C9.68342 117.098 10.3166 117.098 10.7071 116.707L17.0711 110.343C17.4616 109.953 17.4616 109.319 17.0711 108.929C16.6805 108.538 16.0474 108.538 15.6569 108.929L10 114.586L4.34315 108.929C3.95262 108.538 3.31946 108.538 2.92893 108.929C2.53841 109.319 2.53841 109.953 2.92893 110.343L9.29289 116.707ZM9 10L9 116H11L11 10H9Z" fill="#3C4063"/>
<path d="M34.0449 23.5527C34.5137 23.5527 34.9473 23.4473 35.3457 23.2363C35.7559 23.0371 36.125 22.6211 36.4531 21.9883C36.793 21.3672 37.0859 20.4297 37.332 19.1758C37.5547 18.1211 37.8184 17.166 38.123 16.3105C38.4277 15.4668 38.7969 14.7461 39.2305 14.1484C39.6641 13.5625 40.1738 13.1113 40.7598 12.7949C41.3457 12.4785 42.0312 12.3203 42.8164 12.3203C43.5664 12.3203 44.2754 12.4844 44.9434 12.8125C45.6113 13.1523 46.2031 13.627 46.7188 14.2363C47.2344 14.8574 47.6387 15.6016 47.9316 16.4688C48.2246 17.3359 48.3711 18.3027 48.3711 19.3691C48.3711 20.8926 48.1016 22.1934 47.5625 23.2715C47.0234 24.3496 46.3027 25.1758 45.4004 25.75C44.5098 26.3242 43.5195 26.6113 42.4297 26.6113V23.3594C42.957 23.3594 43.4668 23.2012 43.959 22.8848C44.4629 22.5801 44.8789 22.1289 45.207 21.5312C45.5352 20.9453 45.6992 20.2246 45.6992 19.3691C45.6992 18.4668 45.5586 17.7344 45.2773 17.1719C45.0078 16.6211 44.6621 16.2168 44.2402 15.959C43.8184 15.7129 43.373 15.5898 42.9043 15.5898C42.5527 15.5898 42.2363 15.6484 41.9551 15.7656C41.6855 15.8945 41.4336 16.1172 41.1992 16.4336C40.9766 16.75 40.7656 17.1953 40.5664 17.7695C40.3672 18.3438 40.168 19.0762 39.9688 19.9668C39.6172 21.5254 39.1953 22.8086 38.7031 23.8164C38.2109 24.8242 37.6074 25.5742 36.8926 26.0664C36.1777 26.5586 35.3105 26.8047 34.291 26.8047C33.459 26.8047 32.6973 26.6289 32.0059 26.2773C31.3145 25.9375 30.7168 25.4395 30.2129 24.7832C29.7207 24.1387 29.334 23.3652 29.0527 22.4629C28.7832 21.5723 28.6484 20.5703 28.6484 19.457C28.6484 17.7812 28.9473 16.3633 29.5449 15.2031C30.1426 14.043 30.916 13.1641 31.8652 12.5664C32.8145 11.9688 33.8164 11.6699 34.8711 11.6699V14.9395C33.9805 14.9863 33.2715 15.2441 32.7441 15.7129C32.2285 16.1816 31.8594 16.7559 31.6367 17.4355C31.4258 18.1152 31.3203 18.7891 31.3203 19.457C31.3203 20.3477 31.4375 21.0918 31.6719 21.6895C31.9062 22.2988 32.2285 22.7617 32.6387 23.0781C33.0488 23.3945 33.5176 23.5527 34.0449 23.5527ZM31.3203 42.2875C31.3203 43.0609 31.4785 43.7758 31.7949 44.432C32.1113 45.0883 32.5449 45.6273 33.0957 46.0492C33.6582 46.4711 34.2969 46.7113 35.0117 46.7699V49.8637C33.8867 49.8051 32.8379 49.4242 31.8652 48.7211C30.9043 48.0297 30.125 47.1215 29.5273 45.9965C28.9414 44.8715 28.6484 43.6352 28.6484 42.2875C28.6484 40.8578 28.9004 39.6098 29.4043 38.5434C29.9082 37.4887 30.5996 36.6098 31.4785 35.9066C32.3574 35.2152 33.3652 34.6938 34.502 34.3422C35.6504 34.0023 36.8633 33.8324 38.1406 33.8324H38.8789C40.1562 33.8324 41.3633 34.0023 42.5 34.3422C43.6484 34.6938 44.6621 35.2152 45.541 35.9066C46.4199 36.6098 47.1113 37.4887 47.6152 38.5434C48.1191 39.6098 48.3711 40.8578 48.3711 42.2875C48.3711 43.7758 48.0664 45.0766 47.457 46.1898C46.8594 47.3031 46.0391 48.1762 44.9961 48.809C43.9648 49.4535 42.793 49.8051 41.4805 49.8637V46.7699C42.2656 46.7113 42.9746 46.4887 43.6074 46.102C44.2402 45.727 44.7441 45.2113 45.1191 44.5551C45.5059 43.9105 45.6992 43.1547 45.6992 42.2875C45.6992 41.2914 45.5 40.4535 45.1016 39.7738C44.7148 39.1059 44.1875 38.5727 43.5195 38.1742C42.8633 37.7875 42.1309 37.5063 41.3223 37.3305C40.5254 37.1664 39.7109 37.0844 38.8789 37.0844H38.1406C37.3086 37.0844 36.4883 37.1664 35.6797 37.3305C34.8711 37.4945 34.1387 37.7699 33.4824 38.1566C32.8262 38.5551 32.2988 39.0883 31.9004 39.7563C31.5137 40.4359 31.3203 41.2797 31.3203 42.2875ZM45.0312 60.3719H29V57.1199H48.0195V60.284L45.0312 60.3719ZM48.125 66.3133L45.1016 66.2957C45.1602 66.0262 45.1953 65.7684 45.207 65.5223C45.2305 65.2879 45.2422 65.0184 45.2422 64.7137C45.2422 63.9637 45.125 63.3016 44.8906 62.7273C44.6562 62.1531 44.3281 61.6668 43.9062 61.2684C43.4844 60.8699 42.9805 60.5535 42.3945 60.3191C41.8203 60.0965 41.1875 59.95 40.4961 59.8797L39.9688 58.9656C41.1172 58.9656 42.1953 59.077 43.2031 59.2996C44.2109 59.534 45.1016 59.8914 45.875 60.3719C46.6602 60.8523 47.2695 61.4617 47.7031 62.2C48.1484 62.95 48.3711 63.8406 48.3711 64.8719C48.3711 65.1063 48.3418 65.3758 48.2832 65.6805C48.2363 65.9852 48.1836 66.1961 48.125 66.3133ZM38.2988 71.7062H38.7031C40.0742 71.7062 41.3457 71.9055 42.5176 72.3039C43.7012 72.7023 44.7266 73.2766 45.5938 74.0266C46.4727 74.7766 47.1523 75.6848 47.6328 76.7512C48.125 77.8176 48.3711 79.0129 48.3711 80.3371C48.3711 81.673 48.125 82.8742 47.6328 83.9406C47.1523 85.0187 46.4727 85.9328 45.5938 86.6828C44.7266 87.4445 43.7012 88.0246 42.5176 88.423C41.3457 88.8215 40.0742 89.0207 38.7031 89.0207H38.2988C36.9277 89.0207 35.6562 88.8215 34.4844 88.423C33.3125 88.0246 32.2871 87.4445 31.4082 86.6828C30.541 85.9328 29.8613 85.0246 29.3691 83.9582C28.8887 82.9035 28.6484 81.7082 28.6484 80.3723C28.6484 79.0363 28.8887 77.8352 29.3691 76.7687C29.8613 75.7023 30.541 74.7883 31.4082 74.0266C32.2871 73.2766 33.3125 72.7023 34.4844 72.3039C35.6562 71.9055 36.9277 71.7062 38.2988 71.7062ZM38.7031 74.9582H38.2988C37.3496 74.9582 36.4531 75.0695 35.6094 75.2922C34.7773 75.5148 34.0391 75.8488 33.3945 76.2941C32.75 76.7512 32.2402 77.3195 31.8652 77.9992C31.502 78.6789 31.3203 79.4699 31.3203 80.3723C31.3203 81.2629 31.502 82.0422 31.8652 82.7102C32.2402 83.3898 32.75 83.9523 33.3945 84.3977C34.0391 84.843 34.7773 85.177 35.6094 85.3996C36.4531 85.634 37.3496 85.7512 38.2988 85.7512H38.7031C39.6406 85.7512 40.5254 85.634 41.3574 85.3996C42.2012 85.177 42.9453 84.8371 43.5898 84.3801C44.2461 83.9348 44.7617 83.3723 45.1367 82.6926C45.5117 82.0246 45.6992 81.2395 45.6992 80.3371C45.6992 79.4465 45.5117 78.6613 45.1367 77.9816C44.7617 77.3137 44.2461 76.7512 43.5898 76.2941C42.9453 75.8488 42.2012 75.5148 41.3574 75.2922C40.5254 75.0695 39.6406 74.9582 38.7031 74.9582ZM56 100.232H29V96.9625H56V100.232ZM56 112.586H29V109.316H56V112.586Z" fill="#3C4063"/>
</svg>
