<svg width="295" height="192" viewBox="0 0 295 192" fill="none" xmlns="http://www.w3.org/2000/svg">
<path d="M28.52 12.064C32.104 12.128 35.24 12.96 37.928 14.56C40.616 16.16 42.664 18.304 44.072 20.992C45.544 23.68 46.28 26.72 46.28 30.112C46.28 32.608 45.8 34.976 44.84 37.216C43.944 39.392 42.696 41.344 41.096 43.072C43.4 44.8 45.192 46.944 46.472 49.504C47.816 52.064 48.488 54.88 48.488 57.952C48.488 61.216 47.688 64.224 46.088 66.976C44.488 69.728 42.344 71.936 39.656 73.6C36.968 75.2 33.992 76 30.728 76H9.8V12.064H28.52ZM18.248 20.704V39.712H28.52C31.144 39.712 33.352 38.784 35.144 36.928C36.936 35.072 37.832 32.8 37.832 30.112C37.832 27.424 36.936 25.184 35.144 23.392C33.416 21.6 31.208 20.704 28.52 20.704H18.248ZM18.248 48.352V67.36H30.728C33.352 67.36 35.56 66.464 37.352 64.672C39.144 62.816 40.04 60.576 40.04 57.952C40.04 55.264 39.144 52.992 37.352 51.136C35.56 49.28 33.352 48.352 30.728 48.352H18.248Z" fill="#3C4063"/>
<path d="M66.056 55.648C66.056 57.184 66.6 58.784 67.688 60.448C68.84 62.112 70.152 63.52 71.624 64.672C74.312 66.784 77.448 67.84 81.032 67.84C86.728 67.84 91.368 65.088 94.952 59.584L102.248 63.904C99.752 67.936 96.68 71.04 93.032 73.216C89.384 75.392 85.384 76.48 81.032 76.48C77.768 76.48 74.664 75.872 71.72 74.656C68.776 73.376 66.184 71.616 63.944 69.376C61.704 67.136 59.944 64.544 58.664 61.6C57.448 58.656 56.84 55.552 56.84 52.288C56.84 49.024 57.448 45.92 58.664 42.976C59.944 39.968 61.704 37.344 63.944 35.104C66.12 32.864 68.68 31.136 71.624 29.92C74.632 28.704 77.768 28.096 81.032 28.096C84.296 28.096 87.4 28.704 90.344 29.92C93.352 31.136 95.944 32.864 98.12 35.104C102.856 39.968 105.224 45.6 105.224 52C105.224 53.152 105.128 54.368 104.936 55.648H66.056ZM81.032 35.968C78.408 35.968 75.944 36.544 73.64 37.696C71.336 38.848 69.48 40.384 68.072 42.304C66.728 44.16 66.056 46.144 66.056 48.256H96.008C96.008 46.144 95.304 44.16 93.896 42.304C92.552 40.384 90.728 38.848 88.424 37.696C86.12 36.544 83.656 35.968 81.032 35.968Z" fill="#3C4063"/>
<path d="M119.024 44.32C117.808 44.32 116.784 43.936 115.952 43.168C115.184 42.336 114.8 41.312 114.8 40.096C114.8 38.944 115.184 37.952 115.952 37.12C116.784 36.288 117.808 35.872 119.024 35.872C120.176 35.872 121.168 36.288 122 37.12C122.832 37.952 123.248 38.944 123.248 40.096C123.248 41.312 122.832 42.336 122 43.168C121.168 43.936 120.176 44.32 119.024 44.32ZM119.024 76C117.808 76 116.784 75.616 115.952 74.848C115.184 74.016 114.8 72.992 114.8 71.776C114.8 70.624 115.184 69.632 115.952 68.8C116.784 67.968 117.808 67.552 119.024 67.552C120.176 67.552 121.168 67.968 122 68.8C122.832 69.632 123.248 70.624 123.248 71.776C123.248 72.992 122.832 74.016 122 74.848C121.168 75.616 120.176 76 119.024 76Z" fill="#3C4063"/>
<path d="M9.8 172V108.16H18.056V163.36H37.256V172H9.8Z" fill="#3C4063"/>
<path d="M51.216 117.088C50 117.088 48.944 116.672 48.048 115.84C47.216 114.944 46.8 113.888 46.8 112.672C46.8 111.456 47.216 110.432 48.048 109.6C48.944 108.704 50 108.256 51.216 108.256C52.432 108.256 53.456 108.704 54.288 109.6C55.184 110.432 55.632 111.456 55.632 112.672C55.632 113.888 55.184 114.944 54.288 115.84C53.456 116.672 52.432 117.088 51.216 117.088ZM47.28 172V124H55.344V172H47.28Z" fill="#3C4063"/>
<path d="M78.376 132.064V172H70.312V132.064H65.8V124H70.408C70.536 120.928 71.4 118.176 73 115.744C74.664 113.312 76.84 111.424 79.528 110.08C82.216 108.736 85.16 108.064 88.36 108.064V116.32C85.672 116.192 83.4 116.864 81.544 118.336C79.752 119.808 78.792 121.696 78.664 124H88.36V132.064H78.376Z" fill="#3C4063"/>
<path d="M105.056 151.648C105.056 153.184 105.6 154.784 106.688 156.448C107.84 158.112 109.152 159.52 110.624 160.672C113.312 162.784 116.448 163.84 120.032 163.84C125.728 163.84 130.368 161.088 133.952 155.584L141.248 159.904C138.752 163.936 135.68 167.04 132.032 169.216C128.384 171.392 124.384 172.48 120.032 172.48C116.768 172.48 113.664 171.872 110.72 170.656C107.776 169.376 105.184 167.616 102.944 165.376C100.704 163.136 98.944 160.544 97.664 157.6C96.448 154.656 95.84 151.552 95.84 148.288C95.84 145.024 96.448 141.92 97.664 138.976C98.944 135.968 100.704 133.344 102.944 131.104C105.12 128.864 107.68 127.136 110.624 125.92C113.632 124.704 116.768 124.096 120.032 124.096C123.296 124.096 126.4 124.704 129.344 125.92C132.352 127.136 134.944 128.864 137.12 131.104C141.856 135.968 144.224 141.6 144.224 148C144.224 149.152 144.128 150.368 143.936 151.648H105.056ZM120.032 131.968C117.408 131.968 114.944 132.544 112.64 133.696C110.336 134.848 108.48 136.384 107.072 138.304C105.728 140.16 105.056 142.144 105.056 144.256H135.008C135.008 142.144 134.304 140.16 132.896 138.304C131.552 136.384 129.728 134.848 127.424 133.696C125.12 132.544 122.656 131.968 120.032 131.968Z" fill="#3C4063"/>
<path d="M153.8 172V108.16H161.48V172H153.8Z" fill="#3C4063"/>
<path d="M176.216 117.088C175 117.088 173.944 116.672 173.048 115.84C172.216 114.944 171.8 113.888 171.8 112.672C171.8 111.456 172.216 110.432 173.048 109.6C173.944 108.704 175 108.256 176.216 108.256C177.432 108.256 178.456 108.704 179.288 109.6C180.184 110.432 180.632 111.456 180.632 112.672C180.632 113.888 180.184 114.944 179.288 115.84C178.456 116.672 177.432 117.088 176.216 117.088ZM172.28 172V124H180.344V172H172.28Z" fill="#3C4063"/>
<path d="M220.464 172V143.2C220.464 140.32 219.408 137.824 217.296 135.712C215.248 133.664 212.752 132.64 209.808 132.64C206.928 132.64 204.432 133.696 202.32 135.808C201.36 136.768 200.592 137.92 200.016 139.264C199.44 140.544 199.152 141.856 199.152 143.2V172H190.8V125.152H199.152V129.088C200.368 127.616 201.968 126.4 203.952 125.44C205.936 124.48 207.888 124 209.808 124C212.368 124 214.8 124.512 217.104 125.536C219.472 126.496 221.552 127.872 223.344 129.664C225.072 131.392 226.416 133.44 227.376 135.808C228.4 138.112 228.912 140.576 228.912 143.2V172H220.464Z" fill="#3C4063"/>
<path d="M246.056 151.648C246.056 153.184 246.6 154.784 247.688 156.448C248.84 158.112 250.152 159.52 251.624 160.672C254.312 162.784 257.448 163.84 261.032 163.84C266.728 163.84 271.368 161.088 274.952 155.584L282.248 159.904C279.752 163.936 276.68 167.04 273.032 169.216C269.384 171.392 265.384 172.48 261.032 172.48C257.768 172.48 254.664 171.872 251.72 170.656C248.776 169.376 246.184 167.616 243.944 165.376C241.704 163.136 239.944 160.544 238.664 157.6C237.448 154.656 236.84 151.552 236.84 148.288C236.84 145.024 237.448 141.92 238.664 138.976C239.944 135.968 241.704 133.344 243.944 131.104C246.12 128.864 248.68 127.136 251.624 125.92C254.632 124.704 257.768 124.096 261.032 124.096C264.296 124.096 267.4 124.704 270.344 125.92C273.352 127.136 275.944 128.864 278.12 131.104C282.856 135.968 285.224 141.6 285.224 148C285.224 149.152 285.128 150.368 284.936 151.648H246.056ZM261.032 131.968C258.408 131.968 255.944 132.544 253.64 133.696C251.336 134.848 249.48 136.384 248.072 138.304C246.728 140.16 246.056 142.144 246.056 144.256H276.008C276.008 142.144 275.304 140.16 273.896 138.304C272.552 136.384 270.728 134.848 268.424 133.696C266.12 132.544 263.656 131.968 261.032 131.968Z" fill="#3C4063"/>
</svg>
