<svg width="419" height="96" viewBox="0 0 419 96" fill="none" xmlns="http://www.w3.org/2000/svg">
<path d="M28.52 12.064C32.104 12.128 35.24 12.96 37.928 14.56C40.616 16.16 42.664 18.304 44.072 20.992C45.544 23.68 46.28 26.72 46.28 30.112C46.28 32.608 45.8 34.976 44.84 37.216C43.944 39.392 42.696 41.344 41.096 43.072C43.4 44.8 45.192 46.944 46.472 49.504C47.816 52.064 48.488 54.88 48.488 57.952C48.488 61.216 47.688 64.224 46.088 66.976C44.488 69.728 42.344 71.936 39.656 73.6C36.968 75.2 33.992 76 30.728 76H9.8V12.064H28.52ZM18.248 20.704V39.712H28.52C31.144 39.712 33.352 38.784 35.144 36.928C36.936 35.072 37.832 32.8 37.832 30.112C37.832 27.424 36.936 25.184 35.144 23.392C33.416 21.6 31.208 20.704 28.52 20.704H18.248ZM18.248 48.352V67.36H30.728C33.352 67.36 35.56 66.464 37.352 64.672C39.144 62.816 40.04 60.576 40.04 57.952C40.04 55.264 39.144 52.992 37.352 51.136C35.56 49.28 33.352 48.352 30.728 48.352H18.248Z" fill="#3C4063"/>
<path d="M66.056 55.648C66.056 57.184 66.6 58.784 67.688 60.448C68.84 62.112 70.152 63.52 71.624 64.672C74.312 66.784 77.448 67.84 81.032 67.84C86.728 67.84 91.368 65.088 94.952 59.584L102.248 63.904C99.752 67.936 96.68 71.04 93.032 73.216C89.384 75.392 85.384 76.48 81.032 76.48C77.768 76.48 74.664 75.872 71.72 74.656C68.776 73.376 66.184 71.616 63.944 69.376C61.704 67.136 59.944 64.544 58.664 61.6C57.448 58.656 56.84 55.552 56.84 52.288C56.84 49.024 57.448 45.92 58.664 42.976C59.944 39.968 61.704 37.344 63.944 35.104C66.12 32.864 68.68 31.136 71.624 29.92C74.632 28.704 77.768 28.096 81.032 28.096C84.296 28.096 87.4 28.704 90.344 29.92C93.352 31.136 95.944 32.864 98.12 35.104C102.856 39.968 105.224 45.6 105.224 52C105.224 53.152 105.128 54.368 104.936 55.648H66.056ZM81.032 35.968C78.408 35.968 75.944 36.544 73.64 37.696C71.336 38.848 69.48 40.384 68.072 42.304C66.728 44.16 66.056 46.144 66.056 48.256H96.008C96.008 46.144 95.304 44.16 93.896 42.304C92.552 40.384 90.728 38.848 88.424 37.696C86.12 36.544 83.656 35.968 81.032 35.968Z" fill="#3C4063"/>
<path d="M119.024 44.32C117.808 44.32 116.784 43.936 115.952 43.168C115.184 42.336 114.8 41.312 114.8 40.096C114.8 38.944 115.184 37.952 115.952 37.12C116.784 36.288 117.808 35.872 119.024 35.872C120.176 35.872 121.168 36.288 122 37.12C122.832 37.952 123.248 38.944 123.248 40.096C123.248 41.312 122.832 42.336 122 43.168C121.168 43.936 120.176 44.32 119.024 44.32ZM119.024 76C117.808 76 116.784 75.616 115.952 74.848C115.184 74.016 114.8 72.992 114.8 71.776C114.8 70.624 115.184 69.632 115.952 68.8C116.784 67.968 117.808 67.552 119.024 67.552C120.176 67.552 121.168 67.968 122 68.8C122.832 69.632 123.248 70.624 123.248 71.776C123.248 72.992 122.832 74.016 122 74.848C121.168 75.616 120.176 76 119.024 76Z" fill="#3C4063"/>
<path d="M133.8 76V12.16H142.056V67.36H161.256V76H133.8Z" fill="#3C4063"/>
<path d="M175.216 21.088C174 21.088 172.944 20.672 172.048 19.84C171.216 18.944 170.8 17.888 170.8 16.672C170.8 15.456 171.216 14.432 172.048 13.6C172.944 12.704 174 12.256 175.216 12.256C176.432 12.256 177.456 12.704 178.288 13.6C179.184 14.432 179.632 15.456 179.632 16.672C179.632 17.888 179.184 18.944 178.288 19.84C177.456 20.672 176.432 21.088 175.216 21.088ZM171.28 76V28H179.344V76H171.28Z" fill="#3C4063"/>
<path d="M202.376 36.064V76H194.312V36.064H189.8V28H194.408C194.536 24.928 195.4 22.176 197 19.744C198.664 17.312 200.84 15.424 203.528 14.08C206.216 12.736 209.16 12.064 212.36 12.064V20.32C209.672 20.192 207.4 20.864 205.544 22.336C203.752 23.808 202.792 25.696 202.664 28H212.36V36.064H202.376Z" fill="#3C4063"/>
<path d="M229.056 55.648C229.056 57.184 229.6 58.784 230.688 60.448C231.84 62.112 233.152 63.52 234.624 64.672C237.312 66.784 240.448 67.84 244.032 67.84C249.728 67.84 254.368 65.088 257.952 59.584L265.248 63.904C262.752 67.936 259.68 71.04 256.032 73.216C252.384 75.392 248.384 76.48 244.032 76.48C240.768 76.48 237.664 75.872 234.72 74.656C231.776 73.376 229.184 71.616 226.944 69.376C224.704 67.136 222.944 64.544 221.664 61.6C220.448 58.656 219.84 55.552 219.84 52.288C219.84 49.024 220.448 45.92 221.664 42.976C222.944 39.968 224.704 37.344 226.944 35.104C229.12 32.864 231.68 31.136 234.624 29.92C237.632 28.704 240.768 28.096 244.032 28.096C247.296 28.096 250.4 28.704 253.344 29.92C256.352 31.136 258.944 32.864 261.12 35.104C265.856 39.968 268.224 45.6 268.224 52C268.224 53.152 268.128 54.368 267.936 55.648H229.056ZM244.032 35.968C241.408 35.968 238.944 36.544 236.64 37.696C234.336 38.848 232.48 40.384 231.072 42.304C229.728 44.16 229.056 46.144 229.056 48.256H259.008C259.008 46.144 258.304 44.16 256.896 42.304C255.552 40.384 253.728 38.848 251.424 37.696C249.12 36.544 246.656 35.968 244.032 35.968Z" fill="#3C4063"/>
<path d="M277.8 76V12.16H285.48V76H277.8Z" fill="#3C4063"/>
<path d="M300.216 21.088C299 21.088 297.944 20.672 297.048 19.84C296.216 18.944 295.8 17.888 295.8 16.672C295.8 15.456 296.216 14.432 297.048 13.6C297.944 12.704 299 12.256 300.216 12.256C301.432 12.256 302.456 12.704 303.288 13.6C304.184 14.432 304.632 15.456 304.632 16.672C304.632 17.888 304.184 18.944 303.288 19.84C302.456 20.672 301.432 21.088 300.216 21.088ZM296.28 76V28H304.344V76H296.28Z" fill="#3C4063"/>
<path d="M344.464 76V47.2C344.464 44.32 343.408 41.824 341.296 39.712C339.248 37.664 336.752 36.64 333.808 36.64C330.928 36.64 328.432 37.696 326.32 39.808C325.36 40.768 324.592 41.92 324.016 43.264C323.44 44.544 323.152 45.856 323.152 47.2V76H314.8V29.152H323.152V33.088C324.368 31.616 325.968 30.4 327.952 29.44C329.936 28.48 331.888 28 333.808 28C336.368 28 338.8 28.512 341.104 29.536C343.472 30.496 345.552 31.872 347.344 33.664C349.072 35.392 350.416 37.44 351.376 39.808C352.4 42.112 352.912 44.576 352.912 47.2V76H344.464Z" fill="#3C4063"/>
<path d="M370.056 55.648C370.056 57.184 370.6 58.784 371.688 60.448C372.84 62.112 374.152 63.52 375.624 64.672C378.312 66.784 381.448 67.84 385.032 67.84C390.728 67.84 395.368 65.088 398.952 59.584L406.248 63.904C403.752 67.936 400.68 71.04 397.032 73.216C393.384 75.392 389.384 76.48 385.032 76.48C381.768 76.48 378.664 75.872 375.72 74.656C372.776 73.376 370.184 71.616 367.944 69.376C365.704 67.136 363.944 64.544 362.664 61.6C361.448 58.656 360.84 55.552 360.84 52.288C360.84 49.024 361.448 45.92 362.664 42.976C363.944 39.968 365.704 37.344 367.944 35.104C370.12 32.864 372.68 31.136 375.624 29.92C378.632 28.704 381.768 28.096 385.032 28.096C388.296 28.096 391.4 28.704 394.344 29.92C397.352 31.136 399.944 32.864 402.12 35.104C406.856 39.968 409.224 45.6 409.224 52C409.224 53.152 409.128 54.368 408.936 55.648H370.056ZM385.032 35.968C382.408 35.968 379.944 36.544 377.64 37.696C375.336 38.848 373.48 40.384 372.072 42.304C370.728 44.16 370.056 46.144 370.056 48.256H400.008C400.008 46.144 399.304 44.16 397.896 42.304C396.552 40.384 394.728 38.848 392.424 37.696C390.12 36.544 387.656 35.968 385.032 35.968Z" fill="#3C4063"/>
</svg>
